<svg width="40" height="29" viewBox="0 0 40 29" fill="none" xmlns="http://www.w3.org/2000/svg">
<g clip-path="url(#clip0_314_560)">
<path d="M8.49064 18.7683C7.73593 22.9368 6.48468 25.9286 5.48171 27.7735C5.09442 28.5015 5.88886 29.2993 6.59392 28.8904C14.9653 23.9939 18.6396 16.8436 19.0865 11.1194C19.4837 6.17307 16.1272 1.0871 11.0328 0.159661C5.94844 -0.777753 1.07257 2.61289 0.149034 7.72878C-0.814223 13.084 2.94943 18.2298 8.49064 18.7683Z" fill="#3272F6"/>
<path d="M29.3646 18.7683C28.6099 22.9368 27.3586 25.9285 26.3557 27.7734C25.9684 28.5014 26.7628 29.2992 27.4679 28.8904C35.8393 23.9939 39.5136 16.8436 39.9604 11.1194C40.3577 6.17302 37.0011 1.08705 31.9068 0.159611C26.8224 -0.767831 21.9465 2.62282 21.023 7.7387C20.0697 13.084 23.8234 18.2298 29.3646 18.7683Z" fill="#3272F6"/>
</g>
<defs>
<clipPath id="clip0_314_560">
<rect width="40" height="29" fill="white"/>
</clipPath>
</defs>
</svg>
