<svg width="30" height="30" viewBox="0 0 30 30" fill="none" xmlns="http://www.w3.org/2000/svg">
<path d="M8.28125 13.4937C10.0813 17.0312 12.975 19.925 16.5188 21.725L19.2688 18.9688C19.6125 18.625 20.1063 18.525 20.5375 18.6625C21.9375 19.125 23.4438 19.375 25 19.375C25.6938 19.375 26.25 19.9312 26.25 20.625V25C26.25 25.6938 25.6938 26.25 25 26.25C13.2625 26.25 3.75 16.7375 3.75 5C3.75 4.30625 4.3125 3.75 5 3.75H9.375C10.0687 3.75 10.625 4.30625 10.625 5C10.625 6.55625 10.875 8.0625 11.3375 9.4625C11.475 9.89375 11.375 10.3875 11.0312 10.7312L8.28125 13.4937Z" fill="#3272F6"/>
</svg>
