<svg width="78" height="13" viewBox="0 0 78 13" fill="none" xmlns="http://www.w3.org/2000/svg">
<g clip-path="url(#clip0_314_1749)">
<path d="M12.4453 5.00878C12.4024 4.87089 12.2881 4.77039 12.1506 4.74957L8.28694 4.16394L6.55902 0.512095C6.49753 0.382095 6.37059 0.299805 6.23162 0.299805C6.09263 0.299805 5.9657 0.382095 5.90419 0.512095L4.1762 4.16394L0.312622 4.74957C0.175114 4.77039 0.0608276 4.87089 0.0178882 5.00876C-0.0250756 5.14666 0.010756 5.29801 0.110291 5.39919L2.90593 8.24176L2.24606 12.2556C2.22255 12.3985 2.27888 12.5428 2.39131 12.6281C2.45492 12.6763 2.53026 12.7008 2.60596 12.7008C2.66409 12.7008 2.72241 12.6864 2.77582 12.6571L6.23159 10.762L9.68722 12.657C9.81027 12.7245 9.95932 12.7133 10.0718 12.6281C10.1842 12.5428 10.2405 12.3984 10.217 12.2555L9.55696 8.24176L12.3529 5.39916C12.4524 5.29801 12.4883 5.14666 12.4453 5.00878Z" fill="#FBD800"/>
</g>
<g clip-path="url(#clip1_314_1749)">
<path d="M28.8296 5.00878C28.7866 4.87089 28.6724 4.77039 28.5349 4.74957L24.6712 4.16394L22.9433 0.512095C22.8818 0.382095 22.7549 0.299805 22.6159 0.299805C22.4769 0.299805 22.35 0.382095 22.2885 0.512095L20.5605 4.16394L16.6969 4.74957C16.5594 4.77039 16.4451 4.87089 16.4022 5.00876C16.3592 5.14666 16.395 5.29801 16.4946 5.39919L19.2902 8.24176L18.6303 12.2556C18.6068 12.3985 18.6632 12.5428 18.7756 12.6281C18.8392 12.6763 18.9145 12.7008 18.9902 12.7008C19.0484 12.7008 19.1067 12.6864 19.1601 12.6571L22.6159 10.762L26.0715 12.657C26.1945 12.7245 26.3436 12.7133 26.456 12.6281C26.5685 12.5428 26.6248 12.3984 26.6013 12.2555L25.9412 8.24176L28.7372 5.39916C28.8367 5.29801 28.8726 5.14666 28.8296 5.00878Z" fill="#FBD800"/>
</g>
<g clip-path="url(#clip2_314_1749)">
<path d="M45.2139 5.00878C45.1709 4.87089 45.0567 4.77039 44.9191 4.74957L41.0555 4.16394L39.3276 0.512095C39.2661 0.382095 39.1391 0.299805 39.0002 0.299805C38.8612 0.299805 38.7343 0.382095 38.6727 0.512095L36.9448 4.16394L33.0812 4.74957C32.9437 4.77039 32.8294 4.87089 32.7864 5.00876C32.7435 5.14666 32.7793 5.29801 32.8788 5.39919L35.6745 8.24176L35.0146 12.2556C34.9911 12.3985 35.0474 12.5428 35.1599 12.6281C35.2235 12.6763 35.2988 12.7008 35.3745 12.7008C35.4326 12.7008 35.491 12.6864 35.5444 12.6571L39.0001 10.762L42.4558 12.657C42.5788 12.7245 42.7279 12.7133 42.8403 12.6281C42.9527 12.5428 43.0091 12.3984 42.9856 12.2555L42.3255 8.24176L45.1215 5.39916C45.221 5.29801 45.2568 5.14666 45.2139 5.00878Z" fill="#FBD800"/>
</g>
<g clip-path="url(#clip3_314_1749)">
<path d="M56.9878 4.37779L57.1017 4.6184L57.3648 4.65829L60.9923 5.20813L58.3533 7.89115L58.1752 8.07225L58.2164 8.3229L58.835 12.084L55.6248 10.3235L55.3844 10.1917L55.144 10.3235L51.9338 12.084L52.5521 8.32287L52.5933 8.07225L52.4152 7.89116L49.7765 5.20813L53.404 4.65829L53.6671 4.6184L53.781 4.3778L55.3844 0.989161L56.9878 4.37779ZM61.2286 5.24394C61.2285 5.24393 61.2284 5.24392 61.2283 5.2439L61.2285 5.24393L61.2286 5.24394ZM61.1493 5.04852L61.1493 5.04855C61.1493 5.04854 61.1493 5.04853 61.1493 5.04852ZM51.6882 12.2187C51.6883 12.2186 51.6884 12.2185 51.6886 12.2185L51.6882 12.2186L51.6882 12.2187ZM49.5403 5.24394L49.5404 5.24393L49.5403 5.24394ZM55.509 0.72595C55.509 0.726009 55.5089 0.726067 55.5089 0.726126L55.509 0.725954L55.509 0.72595ZM55.2599 0.725999C55.2599 0.725981 55.2599 0.725964 55.2599 0.725946L55.2599 0.725999Z" fill="#FBD800" stroke="#FBD800"/>
</g>
<path d="M73.3716 4.3773L73.4855 4.61791L73.7486 4.6578L77.3761 5.20764L74.7371 7.89066L74.559 8.07176L74.6002 8.32241L75.2187 12.0835L72.0086 10.3231L71.7682 10.1912L71.5278 10.3231L68.3176 12.0835L68.9359 8.32238L68.9771 8.07176L68.799 7.89068L66.1603 5.20765L69.7878 4.6578L70.0509 4.61791L70.1648 4.37731L71.7682 0.988672L73.3716 4.3773ZM77.6124 5.24345C77.6123 5.24344 77.6122 5.24343 77.6121 5.24342L77.6123 5.24344L77.6124 5.24345ZM77.5331 5.04803L77.5331 5.04806C77.5331 5.04805 77.5331 5.04804 77.5331 5.04803ZM68.0719 12.2182C68.0721 12.2181 68.0722 12.2181 68.0724 12.218L68.072 12.2182L68.0719 12.2182ZM65.9242 5.24344L65.9243 5.24342L65.9242 5.24344ZM71.8928 0.725462C71.8927 0.72552 71.8927 0.725579 71.8927 0.725637L71.8928 0.725465L71.8928 0.725462ZM71.6437 0.725487C71.6437 0.725478 71.6437 0.725468 71.6437 0.725458L71.6437 0.725487Z" fill="#FBD800" stroke="#FBD800"/>
<defs>
<clipPath id="clip0_314_1749">
<rect width="12.4632" height="13" fill="white"/>
</clipPath>
<clipPath id="clip1_314_1749">
<rect width="12.4632" height="13" fill="white" transform="translate(16.3843)"/>
</clipPath>
<clipPath id="clip2_314_1749">
<rect width="12.4632" height="13" fill="white" transform="translate(32.7686)"/>
</clipPath>
<clipPath id="clip3_314_1749">
<rect width="12.4632" height="13" fill="white" transform="translate(49.1528)"/>
</clipPath>
</defs>
</svg>
