<svg width="21" height="18" viewBox="0 0 21 18" fill="none" xmlns="http://www.w3.org/2000/svg">
<path d="M18.75 0.825195C19.3359 0.825195 19.8242 1.03678 20.2148 1.45996C20.638 1.85059 20.8496 2.33887 20.8496 2.9248V15.4248C20.8496 16.0107 20.638 16.5153 20.2148 16.9385C19.8242 17.3291 19.3359 17.5244 18.75 17.5244H2.09961C1.51367 17.5244 1.00911 17.3291 0.585938 16.9385C0.195312 16.5153 0 16.0107 0 15.4248V2.9248C0 2.33887 0.195312 1.85059 0.585938 1.45996C1.00911 1.03678 1.51367 0.825195 2.09961 0.825195H18.75ZM18.75 5.02441V2.9248L10.4004 8.14941L2.09961 2.9248V5.02441L10.4004 10.2002L18.75 5.02441Z" fill="#3272F6"/>
</svg>
