<svg width="30" height="31" viewBox="0 0 30 31" fill="none" xmlns="http://www.w3.org/2000/svg">
<path d="M8.28125 13.9584C10.0813 17.5052 12.975 20.4065 16.5188 22.2113L19.2688 19.4478C19.6125 19.1031 20.1063 19.0028 20.5375 19.1407C21.9375 19.6044 23.4438 19.8551 25 19.8551C25.6938 19.8551 26.25 20.4128 26.25 21.1084V25.4949C26.25 26.1905 25.6938 26.7482 25 26.7482C13.2625 26.7482 3.75 17.2106 3.75 5.44225C3.75 4.74668 4.3125 4.18896 5 4.18896H9.375C10.0687 4.18896 10.625 4.74668 10.625 5.44225C10.625 7.0026 10.875 8.51281 11.3375 9.9165C11.475 10.3489 11.375 10.8439 11.0312 11.1886L8.28125 13.9584Z" fill="#3272F6"/>
</svg>
